<svg width="40" height="40" viewBox="0 0 40 40" fill="none" xmlns="http://www.w3.org/2000/svg">
<path d="M31.156 4.88746L27.156 2.77733C23.644 0.926447 21.888 0 20 0C18.112 0 16.356 0.924437 12.844 2.77733L12.202 3.11696L30.048 13.3641L38.08 9.32476C36.788 7.8537 34.704 6.75442 31.156 4.88344M39.496 11.9855L31.5 16.0048V22.1061C31.5 22.5059 31.342 22.8892 31.0607 23.1719C30.7794 23.4545 30.3978 23.6133 30 23.6133C29.6022 23.6133 29.2206 23.4545 28.9393 23.1719C28.658 22.8892 28.5 22.5059 28.5 22.1061V17.5121L21.5 21.0289V40C22.936 39.6403 24.57 38.7801 27.156 37.4156L31.156 35.3055C35.458 33.0366 37.61 31.9031 38.806 29.8633C40 27.8256 40 25.2874 40 20.217V19.9819C40 16.1777 40 13.7982 39.496 11.9855ZM18.5 40V21.0289L0.504 11.9855C1.78814e-07 13.7982 0 16.1777 0 19.9779V20.213C0 25.2874 -2.38419e-07 27.8256 1.194 29.8633C2.39 31.9031 4.542 33.0386 8.844 35.3075L12.844 37.4156C15.43 38.7801 17.064 39.6403 18.5 40ZM1.92 9.32677L20 18.4104L26.822 14.9839L9.05 4.77894L8.844 4.88746C5.298 6.75643 3.212 7.85571 1.92 9.32878" fill="#472900"/>
</svg>
